<svg version="1.2" xmlns="http://www.w3.org/2000/svg" viewBox="0 0 900 900" width="900" height="900">
	<title>miles</title>
	<style>
		.s0 { fill: #ffffff } 
	</style>
	<path id="Path 0" fill-rule="evenodd" class="s0" d="m291.5 38.1c3.1-0.1 6.6 0.6 9 1.8 2.2 1.1 5.2 3.2 6.6 4.8 1.5 1.5 3.2 4.4 3.8 6.3 0.9 2.6 0.9 4.8 0.1 8.5-0.7 2.7-1.6 6.1-2 7.5-0.5 1.4-1.8 5.9-3 10-1.2 4.1-2.5 8.4-3 9.5-0.4 1.1-1.4 4-2 6.5-0.7 2.5-1.8 8.3-2.6 13-0.8 4.7-1.8 15-2.3 23-0.6 8-1 21.1-1 29.3-0.1 11.1 0.2 14.7 1.2 14.7 0.6-0.1 4.1-2 7.7-4.4 3.6-2.4 10.5-6.8 15.5-9.8 4.9-2.9 10.7-6.1 12.8-7.1 2-0.9 5.2-2.3 6.9-3.1 1.8-0.8 5-2.2 7-3 2.1-0.9 4.5-1.6 5.3-1.6 0.8 0 2.3-0.4 3.2-0.9 1-0.5 4.3-1.4 7.3-2 3-0.5 8.2-1.7 11.5-2.5 3.3-0.8 8.5-2.1 11.5-2.9 3-0.8 8.9-2.7 13-4.1 6.9-2.5 8.3-2.6 18-2.1 5.8 0.3 17.3 1.2 25.5 2 8.3 0.8 16.8 1.6 19 1.9 2.2 0.3 8 1.1 13 1.9 4.9 0.8 11 2 13.5 2.6 2.5 0.6 5.4 1.5 6.5 2 1.1 0.5 5.4 1.9 9.5 3.1 4.1 1.2 11.3 3.5 16 5.1 4.7 1.5 10.8 3.7 13.5 4.7 2.7 1.1 7.7 3 11 4.3 3.3 1.3 10.9 5.3 17 8.9 6 3.6 12.5 7.2 14.3 8 2.9 1.3 3.5 1.3 4.8 0 0.9-1 1.6-4.5 2-10.5 0.3-5 0.1-17.3-0.5-27.5-0.5-10.2-1.7-22.6-2.5-27.5-0.8-5-2.2-12.2-3.2-16-0.9-3.9-2.3-10.2-3.1-14-0.8-3.9-1.7-10.6-2-15-0.4-6.4-0.1-8.6 1.3-11 0.9-1.7 4-4.9 6.8-7.3 4.8-4.1 5.4-4.3 10.1-4 2.7 0.3 6.3 1.1 7.9 1.9 1.6 0.8 3.7 2.5 4.7 3.9 1.3 1.9 1.9 5.2 2.3 14 0.3 6.3 1 17.8 1.5 25.5 0.6 7.7 1.4 16.5 2 19.5 0.5 3 1.2 16.1 1.6 29 0.4 13.9 0.2 31.2-0.4 42.3-0.6 10.3-0.9 19.3-0.6 20 0.3 0.6 3.3 3.2 6.7 5.7 3.4 2.5 8.7 7.4 11.7 10.9 3.1 3.6 8.6 9.7 12.3 13.5 5.8 6.1 7 6.9 8.5 6 1-0.6 3.1-3.6 4.7-6.5 1.6-3 5.7-9.2 9.1-13.9 3.4-4.7 6.9-9.9 7.8-11.5 0.8-1.7 2.5-5.9 3.7-9.5 1.2-3.6 3-8.3 4-10.5 0.9-2.2 3-5.5 4.6-7.3 1.6-1.9 4.2-4 5.9-4.8 1.6-0.8 4.5-1.7 6.2-1.9 2.8-0.4 3.9 0.1 7.3 3.5 4 4 4 4.1 3.7 10.8-0.2 4.8-1.1 8.4-3.2 12.7-1.5 3.3-9.4 17-17.6 30.5-8.1 13.5-15.8 26.5-19.6 33.5l3.6 5.8c2 3.2 4.3 6.9 5.1 8.2 0.8 1.2 3.2 4.9 5.2 8.1 2.1 3.3 3.7 6.2 3.8 6.7 0 0.4 1.2 2.6 2.7 5 1.4 2.3 4.5 7.8 6.8 12.2 2.3 4.4 7 13.4 10.4 20 3.3 6.6 6.1 12.6 6.1 13.3 0 0.6 0.3 1.3 0.8 1.5 0.4 0.1 2.5 3.8 4.8 8.2 2.2 4.4 6.3 12.5 9.1 18 2.9 5.5 5.9 11.7 6.7 13.8 0.9 2 1.6 4 1.6 4.5 0 0.4 1.8 2.7 3.9 5.2 2.1 2.5 4.8 6.3 6 8.5 1.7 3.2 2.1 5.7 2.1 12.8 0 5.6-0.6 10-1.6 12.5-0.8 2-2 5.7-2.6 8.2-0.5 2.5-1.3 10.3-2.3 30.5l-4 6c-2.1 3.3-5.2 8.7-6.9 12-1.6 3.3-3.7 9.1-4.7 13-1 3.8-1.9 9.1-1.9 11.8 0 2.6-0.5 5.9-1.1 7.5-0.5 1.5-1.7 6.1-2.5 10.2-0.9 4.1-2 13.8-2.5 21.5-0.5 7.7-1.3 30.2-1.9 50-0.5 19.8-1.4 40.7-2 46.5-0.5 5.8-1 22-1.1 36-0.1 14-0.5 37.9-0.9 53-0.5 15.1-1.3 44.4-1.9 65-0.6 20.6-1.3 38.5-1.6 39.8-0.3 1.4-1.2 2.2-2.5 2.2-1.3 0-2.2-0.8-2.5-2.2-0.2-1.3-0.9-19.6-1.5-40.8-0.5-21.2-1.3-73.4-1.6-116-0.6-72-0.8-77.3-2.3-75.2-0.9 1.4-2.4 2.2-3.5 2-1-0.1-2.2-1-2.6-1.8-0.4-0.8-1.1-2.4-1.7-3.5-0.6-1.1-1.3-3.5-1.7-5.2-0.3-1.8-1.2-3.3-1.8-3.3-0.7 0-3.1 2.3-5.3 5.2-2.2 2.9-9.4 11.4-16.1 18.8-6.7 7.4-18 19.1-25.1 26-7.1 6.9-17.7 16.7-23.6 21.8-9.2 7.9-10.8 9.7-11.3 13-0.4 2-0.1 7.1 0.5 11.2 0.7 4.1 1.8 13.1 2.6 20 0.8 6.9 1.9 16.5 3.3 30.5l-5.4 11c-3 6-6.4 12.8-7.7 15-1.2 2.2-3.1 5.4-4.3 7-1.2 1.7-3.3 3.3-4.8 3.8-1.4 0.4-4.3 0.3-6.3-0.3-2.1-0.5-5.8-2.6-8.2-4.7-2.4-2.1-6.3-6.5-8.7-9.8-2.4-3.3-5-8.2-5.8-11-0.9-2.7-1.6-8.4-1.7-12.5 0-4.1-0.4-9.9-0.7-12.9-0.6-4.7-1.1-5.7-3.7-7.1-1.7-0.9-4.1-2.1-5.5-2.5-1.4-0.5-3.3-1.6-4.2-2.4-1-0.9-2.3-3.6-3-5.9-0.7-2.4-2-4.8-2.8-5.2-0.8-0.5-3.3-0.4-5.5 0-2.2 0.5-9.2 1.8-15.5 2.9-6.3 1.1-13.3 2.3-15.5 2.6-2.2 0.3-8.7 1-14.5 1.6-5.8 0.6-12.1 1.5-14 2-2.1 0.6-14.8 0.8-31 0.6-15.1-0.2-32.5-0.9-38.5-1.5-6.1-0.7-11.7-1.5-12.5-1.8-0.8-0.3-4-1.2-7-1.9-3-0.7-7.5-1.8-10-2.4-2.5-0.6-5.4-1.5-6.5-2-1.1-0.5-5.4-1.8-9.5-3.1-4.1-1.2-8.6-2.6-10-3-1.4-0.5-4.1-1.1-6-1.4-2.4-0.4-4.3-0.1-6 1.1-1.4 0.9-3.4 2.8-4.5 4.2-1.1 1.4-2.5 3-3 3.6-0.6 0.6-1.8 2.6-2.8 4.5-1.8 3.4-1.8 3.7 0.4 14 1.3 5.8 2.5 14.3 2.7 19 0.2 4.8-0.2 10.9-0.9 14-0.7 3-2.1 7.3-3.2 9.5-1.1 2.2-4.8 8.3-8.2 13.5-3.5 5.2-7.6 12-9.2 15-1.6 3-3.5 7.5-4.2 10-0.7 2.5-1.9 10.1-2.6 17-0.8 6.9-1.9 17.9-2.6 24.5-0.6 6.6-1.7 13.5-2.5 15.3-0.8 1.7-1.9 3.2-2.6 3.2-0.6 0-0.8-0.3-0.5-0.7 0.4-0.5 0.3-1.3-0.2-1.8-0.5-0.6-1.2-8.7-1.6-18-0.4-10.6-1-16.4-1.6-15.5-0.5 0.8-0.9 2.4-0.9 3.5 0.1 1.1-0.5 3.2-2.5 7.5l-1.2-2.3c-0.7-1.2-1.5-7.4-1.9-13.7-0.5-8-1.2-12.3-2.3-14-0.9-1.3-2.6-3.6-3.9-5-1.3-1.4-4.6-7-12.4-22.5l0.2-14.5c0.1-8 0.6-21.2 1.1-29.5 0.6-8.2 1.3-18.2 1.6-22 0.2-3.9-0.2-11.7-1-17.5-1-7.1-2.6-13.4-5.1-19.5-2-5-3.6-9.5-3.6-10-0.1-0.6-0.9-2.8-2-5-1.1-2.2-1.9-4.8-2-5.7 0-1-0.5-1.8-1-1.8-0.6 0-1-0.6-1-1.2 0-0.7-3-7.2-6.7-14.3-3.6-7.2-9.4-17.5-12.8-23-3.4-5.5-7.8-12.9-9.7-16.5-1.9-3.6-4.5-8.3-5.8-10.5-1.2-2.2-5.1-9.4-8.5-16-3.5-6.6-8.1-15.4-10.2-19.5-2.2-4.1-6.2-11.6-8.8-16.5-2.7-5-6.1-11.7-7.7-15-1.6-3.3-3.5-7.4-4.3-9-0.7-1.7-2.1-4.7-2.9-6.7-0.9-2.1-1.6-4.7-1.6-5.8 0-1.1-0.5-2.9-1-4-0.6-1.1-1.4-6.6-2-12.2-0.5-5.7-1.4-15.7-1.9-22.3-0.6-6.6-1.5-14.9-2.1-18.5-0.7-3.9-1-12.4-0.7-21 0.3-8 1.2-19 2-24.5 0.9-5.5 2.1-13.4 2.7-17.5 0.5-4.1 1.5-8.5 2-9.7 0.6-1.3 1-3.2 1-4.3 0-1.1 0.6-3.9 1.3-6.2 0.8-2.4 2.4-7.7 3.7-11.8 1.3-4.1 2.7-8 3.2-8.5 0.4-0.6 0.8-1.7 0.8-2.5 0-0.8 0.7-2.9 1.5-4.5 0.9-1.7 1.5-3.3 1.5-3.7 0-0.5 0.6-2.3 1.4-4 0.7-1.8 2.8-6.9 4.6-11.3 1.8-4.4 3.6-8.9 4.1-10 0.4-1.1 1.7-4.2 2.9-7 1.2-2.7 2.5-5.9 3-7 0.4-1.1 3.5-7.6 6.7-14.5 3.3-6.9 6.6-14.1 7.4-16 0.7-1.9 1.3-4.1 1.1-4.7-0.1-0.7-7.1-11.5-15.5-24-8.5-12.6-16.9-25.5-18.7-28.8-1.8-3.3-3.6-6.5-4-7-0.4-0.6-1.5-3.8-2.4-7.2-0.9-3.5-1.6-7.5-1.6-9-0.1-1.6 0.8-4 2-5.5 1.1-1.6 3.7-3.5 5.8-4.3 2-0.9 4.7-1.5 6-1.5 1.2 0 4.1 0.8 6.5 1.9 2.3 1 5.4 3.2 6.9 4.7 1.6 1.7 3.9 6.7 5.8 12.4 1.7 5.2 4.7 12.6 6.5 16.5 1.9 3.8 6.4 11.4 10 16.8 3.6 5.3 7.4 10.6 8.5 11.7 1.1 1.1 2.8 2 3.8 2 1 0.1 9.8-8.4 39.6-39.5l-0.8-21c-0.4-11.6-0.7-28.9-0.7-38.5 0.1-9.6 0.6-22.2 1.2-28 0.5-5.8 1.6-16.6 2.4-24 0.7-7.4 1.8-17.6 2.4-22.5 0.7-5 2-10.4 2.9-12 1-1.7 3.6-4 5.7-5.2 2.5-1.3 5.9-2.2 9-2.2zm121 132.9c-5 0.1-12.2 0.5-16 1-3.9 0.5-10.2 1.4-14 1.9-3.9 0.5-9.2 1.5-12 2.1-2.7 0.7-9.3 2.5-14.5 4.1-5.2 1.5-12.9 4.6-17 6.7-4.1 2.1-10.2 5.3-13.5 7.1-3.3 1.9-8.5 5-11.5 7-3 2-7.2 5.2-9.2 7.1-3.3 3-3.8 3.9-3.2 6.5 0.3 1.6 0.9 3.9 1.4 5 0.5 1.1 3.4 8.5 6.5 16.5 3.1 8 8.5 20.1 11.8 27 3.4 6.9 9.3 16.7 13.3 22 3.8 5.2 11.3 13.4 16.5 18.3 5.2 4.8 9.7 8.7 10.2 8.7 0.4 0 1.9 0.9 3.5 2 1.5 1.2 5.6 3.1 9.2 4.4 3.6 1.3 8.1 2.8 10 3.4 1.9 0.7 4.6 1.2 6 1.2 1.7 0 3-0.9 4.1-2.7 0.9-1.6 2.4-6.2 3.2-10.3 0.9-4.1 1.9-12.5 2.2-18.5 0.4-6.1 1.3-12.5 2.1-14.2 0.8-1.8 2.6-4.5 4.2-5.9 1.5-1.4 3.8-3 5.2-3.5 1.9-0.7 3.5-0.4 6.9 1.3 2.4 1.3 5.2 3.6 6.2 5.3 1.2 2 1.9 5 1.9 9 0 3.3 0.7 10.5 1.6 16q1.6 10 4 13.8c1.7 2.6 3.1 3.7 4.9 3.7 1.4 0 3.8-1.1 5.5-2.5 3-2.5 3-2.7 3.5-14.2 0.3-6.5 1-14.3 1.6-17.3 0.7-3.5 2.1-6.5 3.8-8.3 1.4-1.6 3.8-3.5 5.4-4.3 1.5-0.8 4.8-1.4 7.5-1.4 3.3 0 5.4 0.5 7 2 1.2 1.1 2.4 3.5 2.6 5.3 0.3 1.7 0.7 11.1 1 20.7 0.4 13.2 0.9 18.5 2.2 21.5 0.9 2.2 2.1 4.3 2.8 4.7 0.6 0.4 3.2 0.8 5.9 0.8 2.6 0 6.8-0.7 9.5-1.6 2.6-0.8 7.6-3 11.2-4.7 3.6-1.7 10.5-6.1 15.5-9.8 4.9-3.7 12.8-10.7 17.4-15.6 4.7-4.8 11.3-13.1 14.7-18.3 3.4-5.2 7.9-13.1 9.9-17.5 2-4.4 4-8.9 4.5-10 0.5-1.1 1.8-4.8 2.9-8.2 1.2-3.5 2.1-8.4 2.1-11 0-4.3-0.4-5.2-3.7-8.4-2.1-1.9-5.6-4.9-7.8-6.6-2.2-1.6-9.2-6.1-15.5-9.9-6.3-3.8-14.4-8.3-18-10-3.6-1.7-9.9-4.6-14-6.3-4.1-1.7-7.8-3.1-8.2-3.1-0.5 0-2-0.5-3.5-1.2-1.6-0.6-4.8-1.8-7.3-2.5-2.5-0.7-7.9-2.2-12-3.3-4.1-1.1-8.9-2-10.5-2-1.7 0-3.5-0.4-4-1-0.6-0.5-7.1-1.4-14.5-2.1-7.4-0.6-16.9-1.2-21-1.4-4.1-0.3-8.4 0-9.5 0.5-1.1 0.5-6.1 0.9-11 1zm-157.4 81.5c-1.9 2.8-3.4 5.9-3.4 7 0 1.1 0.6 3.1 1.5 4.5 0.8 1.4 3.9 5.4 6.7 9 2.9 3.6 9.3 11 14.3 16.5 5 5.5 14.8 15.6 21.8 22.5 7 6.9 16.2 14.9 20.4 17.8 4.2 2.8 8 5.2 8.6 5.2 0.5 0 1.6 0.6 2.3 1.3 0.6 0.7 4.6 3 8.7 5.2 4.1 2.1 10.9 5.6 15 7.7 4.1 2 7.7 3.5 8 3.3 0.3-0.2-0.8-1.9-2.4-3.7-1.6-1.8-12.8-13.5-25-26.1-13-13.3-22.8-24.2-23.8-26.5-0.9-2-2.4-5.4-3.2-7.4-0.9-2.1-1.6-4.5-1.6-5.3 0-0.8-0.5-1.5-1-1.5-0.6 0-1.3-1.5-1.6-3.2-0.4-1.8-1-4-1.5-4.8-0.4-0.8-1.4-3.1-2.2-5-0.8-1.9-2-4.9-2.7-6.5-0.7-1.7-3.7-9.1-6.7-16.5-3-7.4-6-14.1-6.6-14.8-0.7-0.7-2-1.3-3.1-1.2-1 0-5.8 3.9-10.5 8.8-4.8 4.8-10.2 11-12 13.7zm336.4-4c-1.5 3.3-3.8 8.7-5.2 12-1.3 3.3-3 7.3-3.8 9-0.7 1.6-2.5 5.7-4 9-1.5 3.3-4 8.7-5.7 12-1.6 3.3-3.8 7.6-5 9.5-1.1 1.9-3.9 5.9-6.1 8.9-2.3 3-12.9 14.4-23.5 25.5l-19.3 20.1c5.9 0.4 8 0.1 8.5-0.5 0.6-0.5 1.7-1 2.5-1 0.9 0 2.7-0.6 4.1-1.3 1.4-0.8 5.2-2.8 8.5-4.7 3.3-1.8 7.3-4.2 9-5.3 1.6-1.2 7.5-5.7 13-10.1 5.5-4.4 13.5-11.1 17.8-15 4.3-3.9 13.1-12.8 19.5-19.7 6.4-6.9 13.3-14.3 15.2-16.5 1.9-2.2 4.8-5.9 6.5-8.2l3-4.2c-4-5.8-7.4-10-10.2-13-2.8-3-7.4-7.4-10.4-9.6-3-2.3-6.3-4.5-7.5-4.8-1.2-0.4-2.5-0.1-3.1 0.6-0.6 0.7-2.3 4-3.8 7.3zm-362 49c-2 4.9-4.3 10.6-5.1 12.5-0.8 1.9-1.9 4.3-2.4 5.3-0.6 0.9-1 2.1-1 2.7 0 0.5-0.9 3.1-2 5.8-1.2 2.6-2.5 5.5-3 6.5-0.6 0.9-1 2.1-1 2.7 0 0.5-0.7 2.5-1.5 4.3-0.7 1.7-3.3 8.8-5.5 15.7-2.3 6.9-4.5 15.2-5 18.5-0.4 3.3-1.3 10.3-1.9 15.5-0.7 5.2-1.6 11.5-2.2 14-0.5 2.5-1 13.3-1.1 24 0 11.4 0.3 20.3 0.9 21.5 0.6 1.1 1.4 3.8 1.8 6 0.4 2.2 1.1 4.7 1.5 5.5 0.4 0.8 1.5 3.1 2.3 5 0.8 1.9 2 4.6 2.5 6 0.6 1.4 2.6 6.1 4.5 10.5 1.8 4.4 4 10.3 4.7 13 1.2 4.4 1.1 6-0.5 13-1 4.4-2.2 8.4-2.6 9-0.5 0.5-0.9 4-0.9 7.8 0 3.7 0.3 6.9 0.8 7.1 0.4 0.2 1.1 1.9 1.5 3.7 0.4 1.9 2.1 6.3 3.8 9.9 1.7 3.6 5.4 11 8.1 16.5 2.8 5.5 7.3 13.8 10.1 18.5 2.8 4.7 8.8 13.4 13.3 19.5 4.5 6 9.2 11.9 10.3 13 1.2 1.1 2.3 1.8 2.4 1.5 0.2-0.3 2.2-3 4.4-6 2.2-3 5.5-8.2 7.3-11.5 1.9-3.3 4.6-8.6 6.2-11.7 1.5-3.2 3.3-7.9 4-10.5 0.9-3.7 0.8-6.7-0.2-13.3-1.1-7.4-1.1-9.6 0.3-17 0.9-4.7 2.3-13.9 3.2-20.5 0.9-6.6 2.3-14.8 3.1-18.3 0.8-3.4 1.4-7 1.4-7.9 0-1 1.4-6.3 3.1-11.8 1.7-5.5 3.4-10.8 4-11.7 0.5-1 0.9-2.3 0.9-2.8 0-0.6 0.9-3.1 2-5.7 1.2-2.7 2.4-5.5 2.9-6.3 0.4-0.8 3-5.6 5.6-10.5 2.6-5 7.5-13 10.9-17.9 3.3-5 7.8-10.8 9.9-13 3.1-3.3 3.6-4.3 2.5-5.3-0.7-0.7-6-1.8-11.8-2.4-5.8-0.7-13.9-1.3-18-1.3-4.1 0-10.9 0.5-15 1.2l-7.5 1.3c-12.2 12.7-16.8 16.4-19.7 17.8-2.7 1.1-6.2 2.1-7.8 2.1-1.7 0-3.2 0.3-3.4 0.7-0.2 0.5-1.9 1.2-3.7 1.6-1.9 0.4-4.2 1.6-5.2 2.5-1 0.9-1.8 2.7-1.7 3.9 0 1.3-0.4 3.3-0.8 4.5-0.5 1.3-1.6 2.6-2.5 3-1.1 0.5-2.4 0.1-3.7-1.2-1.2-1.2-2-3.3-2-5.3 0-1.7-0.7-4.8-1.7-6.7-0.9-1.9-3.7-6.2-6.1-9.5-2.4-3.3-5.4-8.4-6.8-11.3-1.8-4-2.4-6.9-2.4-12.4 0-4 0.7-9.1 1.4-11.3 0.8-2.2 2.1-5.4 3-7 0.9-1.7 3.5-4.9 5.8-7.3 2.4-2.3 6.3-5.2 8.8-6.4 2.7-1.3 7.3-2.4 11.5-2.6 5.9-0.4 7.7-0.1 11.5 1.7 2.5 1.3 7.6 4.7 11.5 7.6 5.1 3.8 8.2 5.4 11.5 5.9 2.5 0.3 14.2 1.1 26 1.6 11.8 0.5 24 1.4 27 2 3 0.5 10.6 1 16.8 1 6.1 0 11.9-0.2 12.7-0.5 0.8-0.3 1.5-1 1.5-1.5 0-0.6-1.7-1.8-3.7-2.8-2.1-1-6.3-2.2-9.3-2.6-3-0.4-7.5-1.4-10-2.3-2.5-0.8-7.9-3.1-12-5.2-4.1-2.1-10.4-5.8-14-8.2-3.6-2.3-7.6-5.2-9-6.5-1.4-1.2-5.4-4.8-9-8-3.6-3.1-10.9-10.1-16.4-15.3-5.4-5.3-14.2-14.4-19.5-20.2-5.3-5.8-12.6-14-16.3-18.3-3.8-4.2-7.2-7.6-7.8-7.6-0.5 0-1.4 0.8-1.9 1.8-0.5 0.9-2.6 5.7-4.6 10.7zm408.8-4.6c-2.1 1.6-8.7 8.2-14.8 14.7-6 6.6-17.9 18.9-26.5 27.5-8.5 8.5-18.7 18.2-22.6 21.5-4 3.2-8.5 6.9-10 8.2-1.6 1.2-5.1 3.7-7.9 5.6-2.7 1.8-8.4 5.1-12.5 7.3-4.1 2.1-10.2 4.9-13.5 6-3.3 1.1-7.6 2.5-9.5 3.2-1.9 0.6-4.7 1.1-6.2 1.1-1.6 0-2.8 0.4-2.8 1 0 0.5 1 1 2.3 1.1 1.2 0 4.7 0 7.7 0 3-0.1 8.4-0.8 12-1.7 3.6-0.9 7.2-1.9 8-2.3 0.8-0.5 3.1-1.2 5-1.6 1.9-0.4 3.9-1.1 4.5-1.6 0.5-0.4 3.9-1.3 7.5-2 3.6-0.7 17.3-1.5 30.5-1.8l24-0.6c4.6-7.3 6.9-10.9 8-12.7 1.1-1.8 3.4-4 5-4.8 1.7-0.8 7.7-3 13.5-5 5.8-2.1 12.1-4.6 14-5.6 2.2-1.3 4.3-3.7 5.7-6.4 1.6-3.4 2.3-7.3 2.8-15.5 0.5-7.5 0.3-11.8-0.4-13.5-0.7-1.4-1.7-3.4-2.4-4.5-0.7-1.2-3.5-5.2-6.4-9-2.8-3.9-6.5-8-8.2-9.2l-3-2.2zm-69.3 113.1c-3.6 0.5-10.5 1.6-15.5 2.4-4.9 0.8-12.1 1.9-16 2.6-3.8 0.7-8.1 1.8-9.5 2.5l-2.5 1.3c6.2 5.6 11.8 9.2 16.5 11.5 5.4 2.7 10.4 6.1 14 9.7 4.3 4.1 6.8 7.9 10.4 15.5 2.7 5.5 5.9 12.1 7.2 14.7 1.3 2.6 2.4 5.2 2.4 5.8 0 0.5 1 3.1 2.1 5.7 1.2 2.6 3.1 6.8 4.1 9.3 1.1 2.5 2.7 6.5 3.5 9 0.9 2.5 1.9 7.2 2.4 10.5 0.5 3.3 1.3 11.4 1.9 18 0.6 6.6 1.5 16 2.1 21 0.6 4.9 1.4 13.7 1.9 19.5 0.5 5.8 1.4 16.8 2 24.5 0.6 7.7 1.5 19.4 2.1 26 0.7 6.6 1.3 12.5 1.5 13.2 0.2 0.7 1.1 1.3 1.9 1.3 0.8 0 3.9-1.6 6.8-3.4 2.8-1.9 8.8-7.2 13.2-11.8 4.4-4.6 9.6-10.3 11.4-12.8l3.4-4.5c-0.7-88.7-0.6-94.5 0.8-98 0.9-2.2 2.5-7.4 3.5-11.5 1.6-6.3 1.9-11.4 1.9-31.5v-24c-4.3-7.4-7.8-11.2-10.7-13.4-2.9-2.1-7.8-5.2-10.8-6.8-3-1.7-7.1-3.4-9-3.8-1.9-0.4-3.9-1-4.5-1.4-0.5-0.3-4.4-1.1-8.5-1.8-4.1-0.7-9.1-1.4-11-1.7-1.9-0.3-5.5-0.1-8 0.4-2.5 0.6-7.4 1.4-11 2zm-194.5 33.5c-9.6 4.6-17.7 9.4-22.5 13.2-4.1 3.3-9.7 8.6-12.5 11.9-2.8 3.2-6.4 7.9-8 10.4-1.7 2.5-4.3 7-5.7 10-1.4 3-3.5 8.2-4.6 11.5-1 3.3-2.6 8.9-3.5 12.5-0.8 3.6-2.2 10.1-3 14.5-0.9 4.4-2.1 13.2-2.9 19.5-0.7 6.6-1.3 23.2-1.3 39.5 0 19.9 0.4 30.1 1.4 35.5 0.8 4.1 1.8 7.9 2.2 8.5 0.4 0.5 1.2 2.8 1.8 5 0.5 2.2 1.9 7.6 3 12 1.2 4.4 2.7 9 3.4 10.2 0.7 1.4 5.6 4.5 12.5 7.8 6.1 3 14 6.4 17.5 7.6 3.4 1.1 6.7 2.4 7.2 2.8 0.6 0.5 4.4 1.8 8.5 3 4.1 1.2 8.6 2.6 10 3.1 1.4 0.5 4.3 1.4 6.5 2 2.2 0.6 6.7 1.8 10 2.6 3.3 0.8 9.6 1.9 14 2.4 4.4 0.4 15.7 0.8 25 0.8 9.4 0 22.4-0.4 29-0.8 6.6-0.5 15.8-1.6 20.5-2.4 4.7-0.9 11.9-2.2 16-3.1 4.1-0.8 9.8-1.9 12.5-2.5 2.8-0.5 7.5-1.7 10.5-2.6 3-0.9 8.9-2.8 13-4.2 4.1-1.4 10-3.7 13-5.2 3-1.5 6.5-3.3 7.7-4.1 1.2-0.8 2.9-2.5 3.7-3.9 0.9-1.7 1.8-8.6 2.7-20 0.6-9.6 1.2-31.2 1.3-48 0.1-19.6-0.3-33.2-1.1-38-0.7-4.1-1.9-12.7-2.8-19-0.9-6.3-2.3-15.1-3.1-19.5-0.8-4.4-2.2-10.3-3.1-13-0.8-2.8-3.3-8.8-5.6-13.5-2.3-4.7-6.6-11.9-9.7-16-3.1-4.1-8.7-10.4-12.6-13.9-3.8-3.5-8-6.9-9.4-7.6-1.4-0.8-4.7-2.1-7.5-3.1-2.7-0.9-7.5-1.7-10.6-1.8-4.6-0.1-6.2 0.3-9.2 2.6-2 1.5-4.5 4-5.4 5.5-1.6 2.4-1.8 6-2 31.7-0.2 26.6-0.4 29.2-2 30.3-1 0.7-2.4 1.3-3 1.3-1 0-1.4 10.8-1.6 49.7-0.2 27.4-0.6 50.6-1 51.5-0.4 1-1.6 1.8-2.7 1.8-1.4 0-2.2-0.9-2.7-2.8-0.3-1.5-0.3-29.2 0-61.5 0.5-38.9 0.4-58.7-0.3-58.7-0.5 0-1.9-1.4-3-3-1.1-1.7-2.5-6.3-3.1-10.8-0.6-4.2-1.3-10.2-1.6-13.2-0.3-3-0.9-6-1.3-6.5-0.5-0.6-1.1 3.7-1.5 10-0.3 6-1 15.5-1.6 21-0.5 5.5-0.9 12.6-0.9 15.7 0 3.2-0.4 6.9-1 8.3-0.7 1.8-1.6 2.4-3.2 2.2-1.9-0.2-2.5-1.2-3.4-5.7-0.7-3-1.2-7.4-1.3-9.8l-0.1-4.2c-9.1 1.3-11.2 1.1-12.1 0.3-1.1-1-1.5-0.8-2.1 1-0.4 1.2-0.8 4.7-0.8 7.7 0 3.2-0.7 6.9-1.7 9-1.2 2.2-2.6 3.6-4 3.7-1.7 0.2-2.4-0.3-2.7-2-0.3-1.2-0.7-14.1-1-28.7-0.4-14.6-1-27-1.5-27.5q-0.9-1-1.5 0.2c-0.3 0.7-1.1 4.3-1.6 8-0.6 3.7-1.5 10-2 14-0.6 4-1.5 8.3-2.1 9.5-0.7 1.3-1.7 2.6-2.3 3-0.6 0.4-2.1 0-3.3-0.8l-2.3-1.4c-0.1 10.4-0.7 16-1.4 19-0.7 3-2.1 5.9-3 6.5-1.4 0.8-2.3 0.3-4.3-2l-2.6-3c1-63.9 0.9-82.5 0.4-83.1-0.5-0.5-1.7-0.8-2.7-0.6-1.1 0.2-8.6 3.6-16.9 7.7zm279.5 67.5c-0.7 2.5-1.6 7.4-2.2 11-0.5 3.6-0.8 17.3-0.6 31.1 0.1 13.6 0.6 25.1 1.1 25.5 0.4 0.5 2.3-0.7 4.3-2.6 1.9-1.9 6.4-7.3 9.8-12 3.5-4.7 7.1-10.1 7.9-12 0.9-1.9 2.2-5.5 2.8-8 0.7-2.5 1.4-9.5 1.7-15.5 0.2-7.2-0.1-12.8-1-16.2-0.7-2.9-1.5-5-1.8-4.9-0.3 0.2-0.8 8-1.3 17.2-0.4 9.7-1.4 19.2-2.3 22.4-0.8 3-1.7 5.8-1.9 6.2-0.3 0.4-1.6 1.2-3 1.8-1.5 0.6-3.2 0.6-4.2 0.1-1-0.5-2.2-1.7-2.6-2.7-0.5-1.1-1.2-11.4-1.7-22.9-0.4-11.6-1.3-22.1-1.8-23.5-0.7-1.9-1.1-2.1-1.6-1-0.3 0.8-1 3.5-1.6 6zm-354.1 335c1-0.1 2.1 1.4 3 3.7 0.7 2.1 1.1 4.9 0.8 6.3-0.3 1.4-1.3 3.4-2 4.5-1.3 1.8-1.7 1.8-3.1 0.5-1-0.9-1.7-3-1.7-5 0.1-1.9 0.4-5 0.7-6.8 0.4-2.1 1.2-3.2 2.3-3.2z"/>
</svg>